<mxfile host="65bd71144e">
    <diagram id="9Dnec_mi4RT1jkdwA-V8" name="Página-1">
        <mxGraphModel dx="1893" dy="601" grid="1" gridSize="10" guides="1" tooltips="1" connect="1" arrows="1" fold="1" page="1" pageScale="1" pageWidth="827" pageHeight="1169" math="0" shadow="0">
            <root>
                <mxCell id="0"/>
                <mxCell id="1" parent="0"/>
                <mxCell id="3" value="AGENCIA DE TURISMO&lt;br style=&quot;font-size: 32px;&quot;&gt;PASAJES AÉREOS" style="text;html=1;strokeColor=none;fillColor=none;align=left;verticalAlign=middle;whiteSpace=wrap;rounded=0;labelBackgroundColor=none;fontSize=32;" vertex="1" parent="1">
                    <mxGeometry x="40" y="40" width="760" height="80" as="geometry"/>
                </mxCell>
                <mxCell id="17" value="" style="edgeStyle=none;html=1;fontSize=12;endArrow=none;endFill=0;startArrow=none;" edge="1" parent="1" source="22" target="16">
                    <mxGeometry relative="1" as="geometry"/>
                </mxCell>
                <mxCell id="5" value="CLIENTES" style="rounded=0;whiteSpace=wrap;html=1;fontSize=12;" vertex="1" parent="1">
                    <mxGeometry x="320" y="400" width="160" height="80" as="geometry"/>
                </mxCell>
                <mxCell id="6" value="&lt;span style=&quot;&quot;&gt;De los clientes se registran: código único de cliente, D.N.I, nombre, apellido, nacionalidad y fecha de nacimiento.&lt;/span&gt;&lt;br style=&quot;&quot;&gt;&lt;span style=&quot;&quot;&gt;Los clientes compran los pasajes aéreos para vuelos a diferentes destinos.&lt;/span&gt;" style="text;html=1;strokeColor=none;fillColor=none;align=left;verticalAlign=middle;whiteSpace=wrap;rounded=0;labelBackgroundColor=none;fontSize=12;" vertex="1" parent="1">
                    <mxGeometry x="-170" y="400" width="410" height="80" as="geometry"/>
                </mxCell>
                <mxCell id="7" style="html=1;labelBorderColor=none;strokeWidth=1;endArrow=oval;endFill=1;endSize=6;targetPerimeterSpacing=0;align=left;fontSize=12;exitX=0;exitY=0;exitDx=0;exitDy=0;" edge="1" target="8" parent="1" source="5">
                    <mxGeometry relative="1" as="geometry">
                        <mxPoint x="140" y="410" as="sourcePoint"/>
                    </mxGeometry>
                </mxCell>
                <mxCell id="8" value="DNI" style="text;html=1;strokeColor=none;fillColor=none;align=left;verticalAlign=middle;whiteSpace=wrap;rounded=0;container=0;spacingLeft=8;fontSize=12;" vertex="1" parent="1">
                    <mxGeometry x="260" y="390" width="40" height="20" as="geometry"/>
                </mxCell>
                <mxCell id="27" value="" style="edgeStyle=none;html=1;fontSize=12;endArrow=none;endFill=0;startArrow=none;" edge="1" parent="1" source="33" target="26">
                    <mxGeometry relative="1" as="geometry"/>
                </mxCell>
                <mxCell id="9" value="VUELOS" style="rounded=0;whiteSpace=wrap;html=1;fontSize=12;" vertex="1" parent="1">
                    <mxGeometry x="800" y="720" width="160" height="80" as="geometry"/>
                </mxCell>
                <mxCell id="10" value="&lt;span style=&quot;color: rgb(240, 240, 240); font-family: Helvetica; font-size: 12px; font-style: normal; font-variant-ligatures: normal; font-variant-caps: normal; font-weight: 400; letter-spacing: normal; orphans: 2; text-align: left; text-indent: 0px; text-transform: none; widows: 2; word-spacing: 0px; -webkit-text-stroke-width: 0px; text-decoration-thickness: initial; text-decoration-style: initial; text-decoration-color: initial; float: none; display: inline !important;&quot;&gt;De cada vuelo se registra ciudad origen, ciudad destino, fecha y hora de salida y fecha y hora de llegada, aerolínea y un número de vuelo asociado. El número de vuelo se puede reutilizar en diferentes días de salida (es decir se repite en diferentes fechas).&lt;/span&gt;" style="text;whiteSpace=wrap;html=1;fontSize=12;labelBackgroundColor=none;" vertex="1" parent="1">
                    <mxGeometry x="1120" y="720" width="340" height="80" as="geometry"/>
                </mxCell>
                <mxCell id="11" value="PASAJES" style="rounded=0;whiteSpace=wrap;html=1;labelBackgroundColor=none;fontSize=12;" vertex="1" parent="1">
                    <mxGeometry x="320" y="720" width="160" height="80" as="geometry"/>
                </mxCell>
                <mxCell id="12" value="&lt;span style=&quot;text-align: left;&quot;&gt;Cada pasaje se caracteriza por número de fila y butaca y el vuelo al que corresponde.&lt;/span&gt;" style="text;html=1;strokeColor=none;fillColor=none;align=center;verticalAlign=middle;whiteSpace=wrap;rounded=0;labelBackgroundColor=none;fontSize=12;" vertex="1" parent="1">
                    <mxGeometry x="280" y="880" width="253" height="70" as="geometry"/>
                </mxCell>
                <mxCell id="13" value="&lt;div style=&quot;font-size: 12px; text-align: left;&quot;&gt;&lt;span style=&quot;background-color: initial;&quot;&gt;Se debe modelar la información necesaria para una agencia de turismo que vende&lt;/span&gt;&lt;/div&gt;&lt;div style=&quot;font-size: 12px; text-align: left;&quot;&gt;&lt;span style=&quot;background-color: initial;&quot;&gt;pasajes aéreos.&lt;/span&gt;&lt;/div&gt;&lt;div style=&quot;font-size: 12px; text-align: left;&quot;&gt;&lt;br&gt;&lt;/div&gt;&lt;div style=&quot;font-size: 12px; text-align: left;&quot;&gt;&lt;span style=&quot;background-color: initial;&quot;&gt;De los clientes se registran: código único de cliente, D.N.I, nombre, apellido, nacionalidad y fecha de nacimiento.&lt;/span&gt;&lt;/div&gt;&lt;div style=&quot;font-size: 12px; text-align: left;&quot;&gt;&lt;span style=&quot;background-color: initial;&quot;&gt;Los clientes compran los pasajes aéreos para vuelos a diferentes destinos.&lt;/span&gt;&lt;/div&gt;&lt;div style=&quot;font-size: 12px; text-align: left;&quot;&gt;&lt;br&gt;&lt;/div&gt;&lt;div style=&quot;font-size: 12px; text-align: left;&quot;&gt;&lt;span style=&quot;background-color: initial;&quot;&gt;De cada vuelo se registra ciudad origen, ciudad destino, fecha y hora de salida y fecha y hora de llegada, aerolínea y un número de vuelo asociado. El número de vuelo se puede reutilizar en diferentes días de salida (es decir se repite en diferentes fechas).&lt;/span&gt;&lt;/div&gt;&lt;div style=&quot;font-size: 12px; text-align: left;&quot;&gt;&lt;br&gt;&lt;/div&gt;&lt;div style=&quot;font-size: 12px; text-align: left;&quot;&gt;&lt;span style=&quot;background-color: initial;&quot;&gt;Cada pasaje se caracteriza por número de fila y butaca y el vuelo al que corresponde.&lt;/span&gt;&lt;/div&gt;&lt;div style=&quot;font-size: 12px; text-align: left;&quot;&gt;&lt;br&gt;&lt;/div&gt;&lt;div style=&quot;font-size: 12px; text-align: left;&quot;&gt;&lt;span style=&quot;background-color: initial;&quot;&gt;Cuando se vende un pasaje se debe dejar registro del cliente que realizó la compra correspondiente.&lt;/span&gt;&lt;/div&gt;" style="rounded=0;whiteSpace=wrap;html=1;labelBackgroundColor=none;labelBorderColor=none;fontSize=32;strokeWidth=1;glass=0;shadow=0;gradientColor=none;fillColor=default;noLabel=0;labelPadding=0;portConstraintRotation=0;backgroundOutline=0;deletable=1;pointerEvents=1;imageAspect=1;strokeColor=none;perimeterSpacing=0;" vertex="1" parent="1">
                    <mxGeometry x="40" y="160" width="720" height="180" as="geometry"/>
                </mxCell>
                <mxCell id="19" value="" style="edgeStyle=none;html=1;fontSize=12;endArrow=none;endFill=0;startArrow=none;" edge="1" parent="1" source="23" target="11">
                    <mxGeometry relative="1" as="geometry"/>
                </mxCell>
                <mxCell id="16" value="comprar" style="rhombus;whiteSpace=wrap;html=1;rounded=0;shadow=0;glass=0;labelBackgroundColor=none;labelBorderColor=none;sketch=0;pointerEvents=1;strokeColor=default;strokeWidth=1;fontSize=12;fillColor=default;gradientColor=none;" vertex="1" parent="1">
                    <mxGeometry x="320" y="560" width="160" height="80" as="geometry"/>
                </mxCell>
                <mxCell id="21" value="" style="edgeStyle=none;html=1;fontSize=12;endArrow=none;endFill=0;" edge="1" parent="1" source="5" target="22">
                    <mxGeometry relative="1" as="geometry">
                        <mxPoint x="480" y="440" as="sourcePoint"/>
                        <mxPoint x="559.9999999999998" y="440" as="targetPoint"/>
                    </mxGeometry>
                </mxCell>
                <mxCell id="22" value="(0, n)" style="text;html=1;strokeColor=none;fillColor=none;align=center;verticalAlign=middle;whiteSpace=wrap;rounded=0;labelBackgroundColor=none;fontSize=12;shadow=0;glass=0;labelBorderColor=none;sketch=0;pointerEvents=1;strokeWidth=1;" vertex="1" parent="1">
                    <mxGeometry x="380" y="510" width="40" height="20" as="geometry"/>
                </mxCell>
                <mxCell id="24" value="" style="edgeStyle=none;html=1;fontSize=12;endArrow=none;endFill=0;" edge="1" parent="1" source="16" target="23">
                    <mxGeometry relative="1" as="geometry">
                        <mxPoint x="719.9999999999998" y="440" as="sourcePoint"/>
                        <mxPoint x="799.9999999999998" y="440" as="targetPoint"/>
                    </mxGeometry>
                </mxCell>
                <mxCell id="23" value="(1, 1)" style="text;html=1;strokeColor=none;fillColor=none;align=center;verticalAlign=middle;whiteSpace=wrap;rounded=0;labelBackgroundColor=none;fontSize=12;shadow=0;glass=0;labelBorderColor=none;sketch=0;pointerEvents=1;strokeWidth=1;" vertex="1" parent="1">
                    <mxGeometry x="380" y="670" width="40" height="20" as="geometry"/>
                </mxCell>
                <mxCell id="25" value="AEROLÍNEAS" style="rounded=0;whiteSpace=wrap;html=1;shadow=0;glass=0;labelBackgroundColor=none;labelBorderColor=none;sketch=0;pointerEvents=1;strokeColor=default;strokeWidth=1;fontSize=12;fillColor=default;gradientColor=none;" vertex="1" parent="1">
                    <mxGeometry x="-160" y="720" width="160" height="80" as="geometry"/>
                </mxCell>
                <mxCell id="28" value="" style="edgeStyle=none;html=1;fontSize=12;endArrow=none;endFill=0;startArrow=none;" edge="1" parent="1" source="35" target="11">
                    <mxGeometry relative="1" as="geometry"/>
                </mxCell>
                <mxCell id="26" value="corresponde" style="rhombus;whiteSpace=wrap;html=1;rounded=0;shadow=0;glass=0;labelBackgroundColor=none;labelBorderColor=none;sketch=0;pointerEvents=1;strokeColor=default;strokeWidth=1;fontSize=12;fillColor=default;gradientColor=none;" vertex="1" parent="1">
                    <mxGeometry x="560" y="720" width="160" height="80" as="geometry"/>
                </mxCell>
                <mxCell id="34" value="" style="edgeStyle=none;html=1;fontSize=12;endArrow=none;endFill=0;" edge="1" parent="1" source="9" target="33">
                    <mxGeometry relative="1" as="geometry">
                        <mxPoint x="840" y="720" as="sourcePoint"/>
                        <mxPoint x="840" y="640" as="targetPoint"/>
                    </mxGeometry>
                </mxCell>
                <mxCell id="33" value="(0, n)" style="text;html=1;strokeColor=none;fillColor=none;align=center;verticalAlign=middle;whiteSpace=wrap;rounded=0;labelBackgroundColor=none;fontSize=12;shadow=0;glass=0;labelBorderColor=none;sketch=0;pointerEvents=1;strokeWidth=1;" vertex="1" parent="1">
                    <mxGeometry x="740" y="750" width="40" height="20" as="geometry"/>
                </mxCell>
                <mxCell id="36" value="" style="edgeStyle=none;html=1;fontSize=12;endArrow=none;endFill=0;" edge="1" parent="1" source="26" target="35">
                    <mxGeometry relative="1" as="geometry">
                        <mxPoint x="880" y="560.0000000000001" as="sourcePoint"/>
                        <mxPoint x="880" y="480" as="targetPoint"/>
                    </mxGeometry>
                </mxCell>
                <mxCell id="35" value="(1, 1)" style="text;html=1;strokeColor=none;fillColor=none;align=center;verticalAlign=middle;whiteSpace=wrap;rounded=0;labelBackgroundColor=none;fontSize=12;shadow=0;glass=0;labelBorderColor=none;sketch=0;pointerEvents=1;strokeWidth=1;" vertex="1" parent="1">
                    <mxGeometry x="500" y="750" width="40" height="20" as="geometry"/>
                </mxCell>
                <mxCell id="41" value="" style="edgeStyle=none;html=1;fontSize=12;endArrow=none;endFill=0;startArrow=none;" edge="1" parent="1" source="49" target="25">
                    <mxGeometry relative="1" as="geometry"/>
                </mxCell>
                <mxCell id="42" value="" style="edgeStyle=none;html=1;fontSize=12;endArrow=none;endFill=0;startArrow=none;" edge="1" parent="1" source="43" target="11">
                    <mxGeometry relative="1" as="geometry"/>
                </mxCell>
                <mxCell id="37" value="pertenece" style="rhombus;whiteSpace=wrap;html=1;rounded=0;shadow=0;glass=0;labelBackgroundColor=none;labelBorderColor=none;sketch=0;pointerEvents=1;strokeColor=default;strokeWidth=1;fontSize=12;fillColor=default;gradientColor=none;" vertex="1" parent="1">
                    <mxGeometry x="80" y="720" width="160" height="80" as="geometry"/>
                </mxCell>
                <mxCell id="44" value="" style="edgeStyle=none;html=1;fontSize=12;endArrow=none;endFill=0;" edge="1" parent="1" source="37" target="43">
                    <mxGeometry relative="1" as="geometry"/>
                </mxCell>
                <mxCell id="45" value="" style="edgeStyle=none;html=1;fontSize=12;endArrow=none;endFill=0;" edge="1" parent="1" source="37" target="43">
                    <mxGeometry relative="1" as="geometry">
                        <mxPoint x="280" y="760" as="sourcePoint"/>
                        <mxPoint x="320" y="760" as="targetPoint"/>
                    </mxGeometry>
                </mxCell>
                <mxCell id="43" value="(1, 1)" style="text;html=1;strokeColor=none;fillColor=none;align=center;verticalAlign=middle;whiteSpace=wrap;rounded=0;labelBackgroundColor=none;fontSize=12;shadow=0;glass=0;labelBorderColor=none;sketch=0;pointerEvents=1;strokeWidth=1;" vertex="1" parent="1">
                    <mxGeometry x="260" y="750" width="40" height="20" as="geometry"/>
                </mxCell>
                <mxCell id="50" value="" style="edgeStyle=none;html=1;fontSize=12;endArrow=none;endFill=0;" edge="1" parent="1" source="37" target="49">
                    <mxGeometry relative="1" as="geometry">
                        <mxPoint x="80" y="760" as="sourcePoint"/>
                        <mxPoint y="760" as="targetPoint"/>
                    </mxGeometry>
                </mxCell>
                <mxCell id="49" value="(0, n)" style="text;html=1;strokeColor=none;fillColor=none;align=center;verticalAlign=middle;whiteSpace=wrap;rounded=0;labelBackgroundColor=none;fontSize=12;shadow=0;glass=0;labelBorderColor=none;sketch=0;pointerEvents=1;strokeWidth=1;" vertex="1" parent="1">
                    <mxGeometry x="20" y="750" width="40" height="20" as="geometry"/>
                </mxCell>
                <mxCell id="51" style="html=1;labelBorderColor=none;strokeWidth=1;endArrow=oval;endFill=0;endSize=6;targetPerimeterSpacing=0;align=left;fontSize=12;exitX=1;exitY=0.5;exitDx=0;exitDy=0;" edge="1" target="52" parent="1" source="9">
                    <mxGeometry relative="1" as="geometry">
                        <mxPoint x="836.0216103830645" y="820" as="sourcePoint"/>
                    </mxGeometry>
                </mxCell>
                <mxCell id="52" value="Fecha salida" style="text;html=1;strokeColor=none;fillColor=none;align=left;verticalAlign=middle;whiteSpace=wrap;rounded=0;container=0;spacingLeft=8;shadow=0;glass=0;labelBackgroundColor=none;labelBorderColor=none;sketch=0;pointerEvents=1;strokeWidth=1;fontSize=12;" vertex="1" parent="1">
                    <mxGeometry x="980" y="750" width="80" height="20" as="geometry"/>
                </mxCell>
                <mxCell id="53" style="html=1;labelBorderColor=none;strokeWidth=1;endArrow=oval;endFill=0;endSize=6;targetPerimeterSpacing=0;align=left;fontSize=12;exitX=0.75;exitY=1;exitDx=0;exitDy=0;" edge="1" target="54" parent="1" source="11">
                    <mxGeometry relative="1" as="geometry">
                        <mxPoint x="340" y="900" as="sourcePoint"/>
                    </mxGeometry>
                </mxCell>
                <mxCell id="54" value="Fila" style="text;html=1;strokeColor=none;fillColor=none;align=left;verticalAlign=middle;whiteSpace=wrap;rounded=0;container=0;spacingLeft=8;shadow=0;glass=0;labelBackgroundColor=none;labelBorderColor=none;sketch=0;pointerEvents=1;strokeWidth=1;fontSize=12;" vertex="1" parent="1">
                    <mxGeometry x="420" y="820" width="40" height="20" as="geometry"/>
                </mxCell>
                <mxCell id="55" style="html=1;labelBorderColor=none;strokeWidth=1;endArrow=oval;endFill=0;endSize=6;targetPerimeterSpacing=0;align=left;fontSize=12;exitX=1;exitY=0.25;exitDx=0;exitDy=0;" edge="1" parent="1" target="56" source="9">
                    <mxGeometry relative="1" as="geometry">
                        <mxPoint x="926.0216103830644" y="850" as="sourcePoint"/>
                    </mxGeometry>
                </mxCell>
                <mxCell id="56" value="Fecha llegada" style="text;html=1;strokeColor=none;fillColor=none;align=left;verticalAlign=middle;whiteSpace=wrap;rounded=0;container=0;spacingLeft=8;shadow=0;glass=0;labelBackgroundColor=none;labelBorderColor=none;sketch=0;pointerEvents=1;strokeWidth=1;fontSize=12;" vertex="1" parent="1">
                    <mxGeometry x="980" y="730" width="90" height="20" as="geometry"/>
                </mxCell>
                <mxCell id="57" style="html=1;labelBorderColor=none;strokeWidth=1;endArrow=oval;endFill=0;endSize=6;targetPerimeterSpacing=0;align=left;fontSize=12;exitX=0.25;exitY=1;exitDx=0;exitDy=0;" edge="1" target="58" parent="1" source="11">
                    <mxGeometry relative="1" as="geometry">
                        <mxPoint x="310" y="840" as="sourcePoint"/>
                    </mxGeometry>
                </mxCell>
                <mxCell id="58" value="Butaca" style="text;html=1;strokeColor=none;fillColor=none;align=left;verticalAlign=middle;whiteSpace=wrap;rounded=0;container=0;spacingLeft=8;shadow=0;glass=0;labelBackgroundColor=none;labelBorderColor=none;sketch=0;pointerEvents=1;strokeWidth=1;fontSize=12;" vertex="1" parent="1">
                    <mxGeometry x="330" y="820" width="60" height="20" as="geometry"/>
                </mxCell>
                <mxCell id="61" style="html=1;labelBorderColor=none;strokeWidth=1;endArrow=oval;endFill=0;endSize=6;targetPerimeterSpacing=0;align=left;fontSize=12;exitX=1;exitY=0.75;exitDx=0;exitDy=0;" edge="1" target="62" parent="1" source="9">
                    <mxGeometry relative="1" as="geometry">
                        <mxPoint x="940" y="660" as="sourcePoint"/>
                    </mxGeometry>
                </mxCell>
                <mxCell id="62" value="Número" style="text;html=1;strokeColor=none;fillColor=none;align=left;verticalAlign=middle;whiteSpace=wrap;rounded=0;container=0;spacingLeft=8;shadow=0;glass=0;labelBackgroundColor=none;labelBorderColor=none;sketch=0;pointerEvents=1;strokeWidth=1;fontSize=12;" vertex="1" parent="1">
                    <mxGeometry x="980" y="770" width="80" height="20" as="geometry"/>
                </mxCell>
                <mxCell id="63" style="html=1;labelBorderColor=none;strokeWidth=1;endArrow=oval;endFill=1;endSize=6;targetPerimeterSpacing=0;align=left;fontSize=12;" edge="1" parent="1">
                    <mxGeometry relative="1" as="geometry">
                        <mxPoint x="970" y="760" as="sourcePoint"/>
                        <mxPoint x="970" y="760" as="targetPoint"/>
                        <Array as="points">
                            <mxPoint x="970" y="770"/>
                        </Array>
                    </mxGeometry>
                </mxCell>
                <mxCell id="64" style="html=1;labelBorderColor=none;strokeWidth=1;endArrow=oval;endFill=1;endSize=6;targetPerimeterSpacing=0;align=left;fontSize=12;" edge="1" parent="1">
                    <mxGeometry relative="1" as="geometry">
                        <mxPoint x="970" y="760" as="sourcePoint"/>
                        <mxPoint x="970" y="780" as="targetPoint"/>
                    </mxGeometry>
                </mxCell>
                <mxCell id="65" style="html=1;labelBorderColor=none;strokeWidth=1;endArrow=oval;endFill=1;endSize=6;targetPerimeterSpacing=0;align=left;fontSize=12;" edge="1" parent="1">
                    <mxGeometry relative="1" as="geometry">
                        <mxPoint x="970" y="780" as="sourcePoint"/>
                        <mxPoint x="970" y="790" as="targetPoint"/>
                    </mxGeometry>
                </mxCell>
                <mxCell id="66" style="html=1;labelBorderColor=none;strokeWidth=1;endArrow=oval;endFill=1;endSize=6;targetPerimeterSpacing=0;align=left;fontSize=12;" edge="1" parent="1">
                    <mxGeometry relative="1" as="geometry">
                        <mxPoint x="790" y="760" as="sourcePoint"/>
                        <mxPoint x="440" y="810" as="targetPoint"/>
                        <Array as="points">
                            <mxPoint x="790" y="810"/>
                        </Array>
                    </mxGeometry>
                </mxCell>
                <mxCell id="67" style="html=1;labelBorderColor=none;strokeWidth=1;endArrow=oval;endFill=1;endSize=6;targetPerimeterSpacing=0;align=left;fontSize=12;" edge="1" parent="1">
                    <mxGeometry relative="1" as="geometry">
                        <mxPoint x="440" y="810" as="sourcePoint"/>
                        <mxPoint x="360" y="810" as="targetPoint"/>
                    </mxGeometry>
                </mxCell>
                <mxCell id="68" style="html=1;labelBorderColor=none;strokeWidth=1;endArrow=oval;endFill=1;endSize=6;targetPerimeterSpacing=0;align=left;fontSize=12;" edge="1" parent="1">
                    <mxGeometry relative="1" as="geometry">
                        <mxPoint x="360" y="810" as="sourcePoint"/>
                        <mxPoint x="340" y="810" as="targetPoint"/>
                    </mxGeometry>
                </mxCell>
                <mxCell id="69" style="html=1;labelBorderColor=none;strokeWidth=1;endArrow=oval;endFill=1;endSize=6;targetPerimeterSpacing=0;align=left;fontSize=12;exitX=0;exitY=0.25;exitDx=0;exitDy=0;" edge="1" target="70" parent="1" source="25">
                    <mxGeometry relative="1" as="geometry">
                        <mxPoint x="-420" y="730" as="sourcePoint"/>
                    </mxGeometry>
                </mxCell>
                <mxCell id="70" value="Nombre" style="text;html=1;strokeColor=none;fillColor=none;align=left;verticalAlign=middle;whiteSpace=wrap;rounded=0;container=0;spacingLeft=8;shadow=0;glass=0;labelBackgroundColor=none;labelBorderColor=none;sketch=0;pointerEvents=1;strokeWidth=1;fontSize=12;" vertex="1" parent="1">
                    <mxGeometry x="-240" y="730" width="60" height="20" as="geometry"/>
                </mxCell>
            </root>
        </mxGraphModel>
    </diagram>
</mxfile>